<mxfile modified="2023-05-07T17:35:11.001Z" host="Electron" agent="Mozilla/5.0 (Macintosh; Intel Mac OS X 10_15_7) AppleWebKit/537.36 (KHTML, like Gecko) draw.io/21.2.8 Chrome/112.0.5615.165 Electron/24.2.0 Safari/537.36" etag="8kwrWVZHYRJVQSO5EfD-" version="21.2.8" type="device">
  <diagram id="Ht1M8jgEwFfnCIfOTk4-" name="Contect and Scope">
    <mxGraphModel dx="1485" dy="1948" grid="1" gridSize="10" guides="1" tooltips="1" connect="1" arrows="1" fold="1" page="1" pageScale="1" pageWidth="1169" pageHeight="827" math="0" shadow="0">
      <root>
        <mxCell id="0" />
        <mxCell id="1" parent="0" />
        <object placeholders="1" c4Name="CloudWatch" c4Type="ContainerScopeBoundary" c4Application="Cloud Watch Log" label="&lt;font style=&quot;font-size: 16px&quot;&gt;&lt;b&gt;&lt;div style=&quot;text-align: left&quot;&gt;%c4Name%&lt;/div&gt;&lt;/b&gt;&lt;/font&gt;&lt;div style=&quot;text-align: left&quot;&gt;[%c4Application%]&lt;/div&gt;" id="glLRqF4IFDoVt5oa2Zbp-27">
          <mxCell style="rounded=1;fontSize=11;whiteSpace=wrap;html=1;dashed=1;arcSize=20;fillColor=#e1d5e7;strokeColor=#9673a6;labelBackgroundColor=none;align=left;verticalAlign=bottom;labelBorderColor=none;spacingTop=0;spacing=10;dashPattern=8 4;metaEdit=1;rotatable=0;perimeter=rectanglePerimeter;noLabel=0;labelPadding=0;allowArrows=0;connectable=0;expand=0;recursiveResize=0;editable=1;pointerEvents=0;absoluteArcSize=1;points=[[0.25,0,0],[0.5,0,0],[0.75,0,0],[1,0.25,0],[1,0.5,0],[1,0.75,0],[0.75,1,0],[0.5,1,0],[0.25,1,0],[0,0.75,0],[0,0.5,0],[0,0.25,0]];" vertex="1" parent="1">
            <mxGeometry x="320" y="-220" width="680" height="1100" as="geometry" />
          </mxCell>
        </object>
        <object placeholders="1" c4Name="IAM" c4Type="ContainerScopeBoundary" c4Application="IAM Policy" label="&lt;font style=&quot;font-size: 16px&quot;&gt;&lt;b&gt;&lt;div style=&quot;text-align: left&quot;&gt;%c4Name%&lt;/div&gt;&lt;/b&gt;&lt;/font&gt;&lt;div style=&quot;text-align: left&quot;&gt;[%c4Application%]&lt;/div&gt;" id="glLRqF4IFDoVt5oa2Zbp-26">
          <mxCell style="rounded=1;fontSize=11;whiteSpace=wrap;html=1;dashed=1;arcSize=20;fillColor=#fff2cc;strokeColor=#d6b656;labelBackgroundColor=none;align=left;verticalAlign=bottom;labelBorderColor=none;spacingTop=0;spacing=10;dashPattern=8 4;metaEdit=1;rotatable=0;perimeter=rectanglePerimeter;noLabel=0;labelPadding=0;allowArrows=0;connectable=0;expand=0;recursiveResize=0;editable=1;pointerEvents=0;absoluteArcSize=1;points=[[0.25,0,0],[0.5,0,0],[0.75,0,0],[1,0.25,0],[1,0.5,0],[1,0.75,0],[0.75,1,0],[0.5,1,0],[0.25,1,0],[0,0.75,0],[0,0.5,0],[0,0.25,0]];" vertex="1" parent="1">
            <mxGeometry x="350" y="-130" width="590" height="930" as="geometry" />
          </mxCell>
        </object>
        <object placeholders="1" c4Name="IAM" c4Type="ContainerScopeBoundary" c4Application="IAM Roles" label="&lt;font style=&quot;font-size: 16px&quot;&gt;&lt;b&gt;&lt;div style=&quot;text-align: left&quot;&gt;%c4Name%&lt;/div&gt;&lt;/b&gt;&lt;/font&gt;&lt;div style=&quot;text-align: left&quot;&gt;[%c4Application%]&lt;/div&gt;" id="glLRqF4IFDoVt5oa2Zbp-24">
          <mxCell style="rounded=1;fontSize=11;whiteSpace=wrap;html=1;dashed=1;arcSize=20;fillColor=#ffe6cc;strokeColor=#d79b00;labelBackgroundColor=none;align=left;verticalAlign=bottom;labelBorderColor=none;spacingTop=0;spacing=10;dashPattern=8 4;metaEdit=1;rotatable=0;perimeter=rectanglePerimeter;noLabel=0;labelPadding=0;allowArrows=0;connectable=0;expand=0;recursiveResize=0;editable=1;pointerEvents=0;absoluteArcSize=1;points=[[0.25,0,0],[0.5,0,0],[0.75,0,0],[1,0.25,0],[1,0.5,0],[1,0.75,0],[0.75,1,0],[0.5,1,0],[0.25,1,0],[0,0.75,0],[0,0.5,0],[0,0.25,0]];" vertex="1" parent="1">
            <mxGeometry x="756" width="170" height="790" as="geometry" />
          </mxCell>
        </object>
        <object placeholders="1" c4Name="S3" c4Type="ContainerScopeBoundary" c4Application="S3 Bucket" label="&lt;font style=&quot;font-size: 16px&quot;&gt;&lt;b&gt;&lt;div style=&quot;text-align: left&quot;&gt;%c4Name%&lt;/div&gt;&lt;/b&gt;&lt;/font&gt;&lt;div style=&quot;text-align: left&quot;&gt;[%c4Application%]&lt;/div&gt;" id="glLRqF4IFDoVt5oa2Zbp-23">
          <mxCell style="rounded=1;fontSize=11;whiteSpace=wrap;html=1;dashed=1;arcSize=20;fillColor=#d5e8d4;strokeColor=#82b366;labelBackgroundColor=none;align=left;verticalAlign=bottom;labelBorderColor=none;spacingTop=0;spacing=10;dashPattern=8 4;metaEdit=1;rotatable=0;perimeter=rectanglePerimeter;noLabel=0;labelPadding=0;allowArrows=0;connectable=0;expand=0;recursiveResize=0;editable=1;pointerEvents=0;absoluteArcSize=1;points=[[0.25,0,0],[0.5,0,0],[0.75,0,0],[1,0.25,0],[1,0.5,0],[1,0.75,0],[0.75,1,0],[0.5,1,0],[0.25,1,0],[0,0.75,0],[0,0.5,0],[0,0.25,0]];" vertex="1" parent="1">
            <mxGeometry x="503" width="240" height="790" as="geometry" />
          </mxCell>
        </object>
        <mxCell id="UEzPUAAOIrF-is8g5C7q-129" style="edgeStyle=orthogonalEdgeStyle;rounded=0;orthogonalLoop=1;jettySize=auto;html=1;startArrow=open;startFill=0;endArrow=open;endFill=0;strokeWidth=2;strokeColor=#808080;" parent="1" source="glLRqF4IFDoVt5oa2Zbp-3" target="UEzPUAAOIrF-is8g5C7q-109" edge="1">
          <mxGeometry relative="1" as="geometry">
            <Array as="points">
              <mxPoint x="90" y="374" />
              <mxPoint x="90" y="374" />
            </Array>
            <mxPoint x="447" y="389.94" as="sourcePoint" />
            <mxPoint x="580.0008871499738" y="389.94" as="targetPoint" />
          </mxGeometry>
        </mxCell>
        <mxCell id="UEzPUAAOIrF-is8g5C7q-109" value="Client" style="outlineConnect=0;gradientColor=default;fontColor=#545B64;strokeColor=none;fillColor=#879196;dashed=0;verticalLabelPosition=bottom;verticalAlign=top;align=center;html=1;fontSize=12;fontStyle=0;aspect=fixed;shape=mxgraph.aws4.illustration_desktop;pointerEvents=1;labelBackgroundColor=#ffffff;" parent="1" vertex="1">
          <mxGeometry x="160.5" y="345" width="100" height="91" as="geometry" />
        </mxCell>
        <mxCell id="UEzPUAAOIrF-is8g5C7q-116" value="Amazon S3" style="outlineConnect=0;fontColor=#232F3E;gradientColor=#60A337;gradientDirection=north;fillColor=#277116;strokeColor=#ffffff;dashed=0;verticalLabelPosition=bottom;verticalAlign=top;align=center;html=1;fontSize=12;fontStyle=0;aspect=fixed;shape=mxgraph.aws4.resourceIcon;resIcon=mxgraph.aws4.s3;labelBackgroundColor=#ffffff;" parent="1" vertex="1">
          <mxGeometry x="584.0000000000002" y="-98" width="78" height="78" as="geometry" />
        </mxCell>
        <mxCell id="UEzPUAAOIrF-is8g5C7q-119" value="Amazon&lt;br&gt;DynamoDB&lt;br&gt;" style="outlineConnect=0;fontColor=#232F3E;gradientColor=#4D72F3;gradientDirection=north;fillColor=#3334B9;strokeColor=#ffffff;dashed=0;verticalLabelPosition=bottom;verticalAlign=top;align=center;html=1;fontSize=12;fontStyle=0;aspect=fixed;shape=mxgraph.aws4.resourceIcon;resIcon=mxgraph.aws4.dynamodb;labelBackgroundColor=#ffffff;spacingTop=5;" parent="1" vertex="1">
          <mxGeometry x="810.0000000000002" y="332.5" width="78" height="78" as="geometry" />
        </mxCell>
        <mxCell id="UEzPUAAOIrF-is8g5C7q-122" value="IAM Roles" style="outlineConnect=0;fontColor=#232F3E;gradientColor=none;fillColor=#C7131F;strokeColor=none;dashed=0;verticalLabelPosition=bottom;verticalAlign=top;align=center;html=1;fontSize=12;fontStyle=0;aspect=fixed;pointerEvents=1;shape=mxgraph.aws4.role;labelBackgroundColor=#ffffff;" parent="1" vertex="1">
          <mxGeometry x="810.0000000000002" y="-64" width="78" height="44" as="geometry" />
        </mxCell>
        <mxCell id="UEzPUAAOIrF-is8g5C7q-123" value="CloudWatch Logs" style="outlineConnect=0;fontColor=#232F3E;gradientColor=none;gradientDirection=north;fillColor=#F34482;strokeColor=none;dashed=0;verticalLabelPosition=bottom;verticalAlign=top;align=center;html=1;fontSize=12;fontStyle=0;aspect=fixed;shape=mxgraph.aws4.cloudwatch;labelBackgroundColor=#ffffff;" parent="1" vertex="1">
          <mxGeometry x="880.0000000000002" y="-298" width="78" height="78" as="geometry" />
        </mxCell>
        <mxCell id="glLRqF4IFDoVt5oa2Zbp-1" value="@DELETE&lt;br&gt;Delete" style="outlineConnect=0;dashed=0;verticalLabelPosition=bottom;verticalAlign=top;align=center;html=1;shape=mxgraph.aws3.lambda;fillColor=#F58534;gradientColor=none;" vertex="1" parent="1">
          <mxGeometry x="585" y="180" width="76.5" height="93" as="geometry" />
        </mxCell>
        <mxCell id="glLRqF4IFDoVt5oa2Zbp-2" value="API Gateway" style="outlineConnect=0;dashed=0;verticalLabelPosition=bottom;verticalAlign=top;align=center;html=1;shape=mxgraph.aws3.api_gateway;fillColor=#D9A741;gradientColor=none;" vertex="1" parent="1">
          <mxGeometry x="371" y="330" width="76.5" height="93" as="geometry" />
        </mxCell>
        <mxCell id="glLRqF4IFDoVt5oa2Zbp-3" value="" style="outlineConnect=0;dashed=0;verticalLabelPosition=bottom;verticalAlign=top;align=center;html=1;shape=mxgraph.aws3.user;fillColor=#D2D3D3;gradientColor=none;" vertex="1" parent="1">
          <mxGeometry x="30" y="343" width="45" height="63" as="geometry" />
        </mxCell>
        <mxCell id="glLRqF4IFDoVt5oa2Zbp-6" value="@POST&lt;br&gt;Create" style="outlineConnect=0;dashed=0;verticalLabelPosition=bottom;verticalAlign=top;align=center;html=1;shape=mxgraph.aws3.lambda;fillColor=#F58534;gradientColor=none;" vertex="1" parent="1">
          <mxGeometry x="585" y="30" width="76.5" height="93" as="geometry" />
        </mxCell>
        <mxCell id="glLRqF4IFDoVt5oa2Zbp-7" value="@GET&lt;br&gt;Get" style="outlineConnect=0;dashed=0;verticalLabelPosition=bottom;verticalAlign=top;align=center;html=1;shape=mxgraph.aws3.lambda;fillColor=#F58534;gradientColor=none;" vertex="1" parent="1">
          <mxGeometry x="585" y="476.5" width="76.5" height="93" as="geometry" />
        </mxCell>
        <mxCell id="glLRqF4IFDoVt5oa2Zbp-8" value="@QUERY&lt;br&gt;Query" style="outlineConnect=0;dashed=0;verticalLabelPosition=bottom;verticalAlign=top;align=center;html=1;shape=mxgraph.aws3.lambda;fillColor=#F58534;gradientColor=none;" vertex="1" parent="1">
          <mxGeometry x="585" y="620" width="76.5" height="93" as="geometry" />
        </mxCell>
        <mxCell id="glLRqF4IFDoVt5oa2Zbp-9" style="edgeStyle=orthogonalEdgeStyle;rounded=0;orthogonalLoop=1;jettySize=auto;html=1;startArrow=open;startFill=0;endArrow=open;endFill=0;strokeWidth=2;strokeColor=#808080;entryX=0;entryY=0.5;entryDx=0;entryDy=0;entryPerimeter=0;exitX=0.5;exitY=0;exitDx=0;exitDy=0;exitPerimeter=0;" edge="1" parent="1" source="glLRqF4IFDoVt5oa2Zbp-2" target="glLRqF4IFDoVt5oa2Zbp-6">
          <mxGeometry relative="1" as="geometry">
            <Array as="points">
              <mxPoint x="409" y="330" />
              <mxPoint x="409" y="77" />
            </Array>
            <mxPoint x="457.5" y="401.5" as="sourcePoint" />
            <mxPoint x="590.5008871499738" y="401.5" as="targetPoint" />
          </mxGeometry>
        </mxCell>
        <mxCell id="glLRqF4IFDoVt5oa2Zbp-10" style="edgeStyle=orthogonalEdgeStyle;rounded=0;orthogonalLoop=1;jettySize=auto;html=1;startArrow=open;startFill=0;endArrow=open;endFill=0;strokeWidth=2;strokeColor=#808080;entryX=0;entryY=0.5;entryDx=0;entryDy=0;entryPerimeter=0;" edge="1" parent="1" source="glLRqF4IFDoVt5oa2Zbp-2" target="glLRqF4IFDoVt5oa2Zbp-7">
          <mxGeometry relative="1" as="geometry">
            <Array as="points">
              <mxPoint x="490" y="390" />
              <mxPoint x="490" y="523" />
            </Array>
            <mxPoint x="458" y="387" as="sourcePoint" />
            <mxPoint x="590" y="237" as="targetPoint" />
          </mxGeometry>
        </mxCell>
        <mxCell id="glLRqF4IFDoVt5oa2Zbp-11" style="edgeStyle=orthogonalEdgeStyle;rounded=0;orthogonalLoop=1;jettySize=auto;html=1;startArrow=open;startFill=0;endArrow=open;endFill=0;strokeWidth=2;strokeColor=#808080;entryX=0.048;entryY=0.584;entryDx=0;entryDy=0;entryPerimeter=0;" edge="1" parent="1" target="glLRqF4IFDoVt5oa2Zbp-8">
          <mxGeometry relative="1" as="geometry">
            <Array as="points">
              <mxPoint x="409" y="674" />
              <mxPoint x="490" y="674" />
            </Array>
            <mxPoint x="410" y="460" as="sourcePoint" />
            <mxPoint x="595" y="533" as="targetPoint" />
          </mxGeometry>
        </mxCell>
        <mxCell id="glLRqF4IFDoVt5oa2Zbp-17" style="edgeStyle=orthogonalEdgeStyle;rounded=0;orthogonalLoop=1;jettySize=auto;html=1;startArrow=open;startFill=0;endArrow=open;endFill=0;strokeWidth=2;strokeColor=#808080;entryX=1;entryY=0.5;entryDx=0;entryDy=0;entryPerimeter=0;" edge="1" parent="1" source="UEzPUAAOIrF-is8g5C7q-119" target="glLRqF4IFDoVt5oa2Zbp-6">
          <mxGeometry relative="1" as="geometry">
            <Array as="points">
              <mxPoint x="850" y="77" />
              <mxPoint x="662" y="77" />
            </Array>
            <mxPoint x="1039.96" y="340" as="sourcePoint" />
            <mxPoint x="824.96" y="47" as="targetPoint" />
          </mxGeometry>
        </mxCell>
        <mxCell id="glLRqF4IFDoVt5oa2Zbp-18" style="edgeStyle=orthogonalEdgeStyle;rounded=0;orthogonalLoop=1;jettySize=auto;html=1;startArrow=open;startFill=0;endArrow=open;endFill=0;strokeWidth=2;strokeColor=#808080;entryX=1;entryY=0.5;entryDx=0;entryDy=0;entryPerimeter=0;" edge="1" parent="1" target="glLRqF4IFDoVt5oa2Zbp-8">
          <mxGeometry relative="1" as="geometry">
            <Array as="points">
              <mxPoint x="850" y="667" />
              <mxPoint x="672" y="667" />
            </Array>
            <mxPoint x="850" y="460" as="sourcePoint" />
            <mxPoint x="672" y="87" as="targetPoint" />
          </mxGeometry>
        </mxCell>
        <mxCell id="glLRqF4IFDoVt5oa2Zbp-19" style="edgeStyle=orthogonalEdgeStyle;rounded=0;orthogonalLoop=1;jettySize=auto;html=1;startArrow=open;startFill=0;endArrow=open;endFill=0;strokeWidth=2;strokeColor=#808080;" edge="1" parent="1" target="glLRqF4IFDoVt5oa2Zbp-1">
          <mxGeometry relative="1" as="geometry">
            <Array as="points">
              <mxPoint x="780" y="360" />
              <mxPoint x="780" y="230" />
            </Array>
            <mxPoint x="810" y="360" as="sourcePoint" />
            <mxPoint x="672" y="87" as="targetPoint" />
          </mxGeometry>
        </mxCell>
        <mxCell id="glLRqF4IFDoVt5oa2Zbp-20" style="edgeStyle=orthogonalEdgeStyle;rounded=0;orthogonalLoop=1;jettySize=auto;html=1;startArrow=open;startFill=0;endArrow=open;endFill=0;strokeWidth=2;strokeColor=#808080;entryX=1;entryY=0.5;entryDx=0;entryDy=0;entryPerimeter=0;" edge="1" parent="1" target="glLRqF4IFDoVt5oa2Zbp-7">
          <mxGeometry relative="1" as="geometry">
            <Array as="points">
              <mxPoint x="810" y="390" />
              <mxPoint x="780" y="390" />
              <mxPoint x="780" y="520" />
              <mxPoint x="662" y="520" />
            </Array>
            <mxPoint x="810" y="390" as="sourcePoint" />
            <mxPoint x="672" y="267" as="targetPoint" />
          </mxGeometry>
        </mxCell>
        <mxCell id="glLRqF4IFDoVt5oa2Zbp-21" style="edgeStyle=orthogonalEdgeStyle;rounded=0;orthogonalLoop=1;jettySize=auto;html=1;startArrow=open;startFill=0;endArrow=open;endFill=0;strokeWidth=2;strokeColor=#808080;entryX=0;entryY=0.5;entryDx=0;entryDy=0;entryPerimeter=0;" edge="1" parent="1" target="glLRqF4IFDoVt5oa2Zbp-1">
          <mxGeometry relative="1" as="geometry">
            <Array as="points">
              <mxPoint x="490" y="360" />
              <mxPoint x="490" y="227" />
            </Array>
            <mxPoint x="450" y="360" as="sourcePoint" />
            <mxPoint x="595" y="267" as="targetPoint" />
          </mxGeometry>
        </mxCell>
        <mxCell id="glLRqF4IFDoVt5oa2Zbp-22" style="edgeStyle=orthogonalEdgeStyle;rounded=0;orthogonalLoop=1;jettySize=auto;html=1;startArrow=open;startFill=0;endArrow=open;endFill=0;strokeWidth=2;strokeColor=#808080;" edge="1" parent="1" source="UEzPUAAOIrF-is8g5C7q-109">
          <mxGeometry relative="1" as="geometry">
            <Array as="points">
              <mxPoint x="366" y="376" />
            </Array>
            <mxPoint x="280" y="377" as="sourcePoint" />
            <mxPoint x="366" y="377" as="targetPoint" />
          </mxGeometry>
        </mxCell>
        <mxCell id="glLRqF4IFDoVt5oa2Zbp-25" value="IAM Policy" style="outlineConnect=0;dashed=0;verticalLabelPosition=bottom;verticalAlign=top;align=center;html=1;shape=mxgraph.aws3.iam;fillColor=#759C3E;gradientColor=none;" vertex="1" parent="1">
          <mxGeometry x="388.25" y="-160" width="42" height="81" as="geometry" />
        </mxCell>
      </root>
    </mxGraphModel>
  </diagram>
</mxfile>
